<svg width="11" height="12" viewBox="0 0 11 12" fill="none" xmlns="http://www.w3.org/2000/svg">
<path d="M2.40938 5.37706L5.38854 0.583313L8.36771 5.37706H2.40938ZM8.43542 11.4166C7.76736 11.4166 7.20764 11.191 6.75625 10.7396C6.30486 10.2882 6.07917 9.72845 6.07917 9.0604C6.07917 8.39234 6.30486 7.83262 6.75625 7.38123C7.20764 6.92984 7.76736 6.70415 8.43542 6.70415C9.10347 6.70415 9.66319 6.92984 10.1146 7.38123C10.566 7.83262 10.7917 8.39234 10.7917 9.0604C10.7917 9.72845 10.566 10.2882 10.1146 10.7396C9.66319 11.191 9.10347 11.4166 8.43542 11.4166ZM0.5 11.0781V6.96144H4.61667V11.0781H0.5ZM8.43657 10.6041C8.86913 10.6041 9.23438 10.4548 9.53229 10.1561C9.83021 9.85744 9.97917 9.49182 9.97917 9.05924C9.97917 8.62668 9.82983 8.26144 9.53116 7.96352C9.23247 7.6656 8.86684 7.51665 8.43427 7.51665C8.0017 7.51665 7.63646 7.66599 7.33854 7.96467C7.04063 8.26335 6.89167 8.62897 6.89167 9.06155C6.89167 9.49411 7.041 9.85935 7.33968 10.1573C7.63836 10.4552 8.00399 10.6041 8.43657 10.6041ZM1.3125 10.2656H3.80417V7.77394H1.3125V10.2656ZM3.87188 4.56456H6.90521L5.38854 2.11352L3.87188 4.56456Z" fill="#D87CAC"/>
</svg>
