<svg width="11" height="14" viewBox="0 0 11 14" fill="none" xmlns="http://www.w3.org/2000/svg">
<path d="M5.50139 7.17084C5.80255 7.17084 6.0599 7.05932 6.27344 6.83627C6.48698 6.61324 6.59375 6.34511 6.59375 6.0319C6.59375 5.7187 6.48652 5.45105 6.27205 5.22897C6.05759 5.00689 5.79978 4.89584 5.49861 4.89584C5.19745 4.89584 4.9401 5.00737 4.72656 5.23041C4.51302 5.45345 4.40625 5.72158 4.40625 6.03479C4.40625 6.34799 4.51348 6.61563 4.72795 6.83772C4.94241 7.0598 5.20022 7.17084 5.50139 7.17084ZM5.5 12.5496C6.88542 11.2388 7.90885 10.0498 8.57031 8.98272C9.23177 7.91564 9.5625 6.97584 9.5625 6.16334C9.5625 4.88728 9.17035 3.84244 8.38606 3.0288C7.60178 2.21516 6.63976 1.80834 5.5 1.80834C4.36024 1.80834 3.39822 2.21516 2.61394 3.0288C1.82965 3.84244 1.4375 4.88728 1.4375 6.16334C1.4375 6.97584 1.77604 7.91564 2.45312 8.98272C3.13021 10.0498 4.14583 11.2388 5.5 12.5496ZM5.5 13.8333C3.82292 12.3492 2.57031 10.9706 1.74219 9.69772C0.914062 8.4248 0.5 7.24668 0.5 6.16334C0.5 4.53834 1.0026 3.24376 2.00781 2.27959C3.01302 1.31543 4.17708 0.833344 5.5 0.833344C6.82292 0.833344 7.98698 1.31543 8.99219 2.27959C9.9974 3.24376 10.5 4.53834 10.5 6.16334C10.5 7.24668 10.0859 8.4248 9.25781 9.69772C8.42969 10.9706 7.17708 12.3492 5.5 13.8333Z" fill="#D87CAC"/>
</svg>
