<svg width="16" height="14" viewBox="0 0 16 14" fill="none" xmlns="http://www.w3.org/2000/svg">
<path id="photo_camera" d="M7.99 11.1417C8.95667 11.1417 9.76667 10.8241 10.42 10.1889C11.0733 9.5537 11.4 8.7662 11.4 7.82639C11.4 6.88657 11.0733 6.10231 10.42 5.47361C9.76667 4.84491 8.95667 4.53056 7.99 4.53056C7.02333 4.53056 6.21667 4.84491 5.57 5.47361C4.92333 6.10231 4.6 6.88657 4.6 7.82639C4.6 8.7662 4.92333 9.5537 5.57 10.1889C6.21667 10.8241 7.02333 11.1417 7.99 11.1417ZM7.99 9.975C7.35667 9.975 6.83333 9.77083 6.42 9.3625C6.00667 8.95417 5.8 8.44213 5.8 7.82639C5.8 7.21065 6.00667 6.70185 6.42 6.3C6.83333 5.89815 7.35667 5.69722 7.99 5.69722C8.62333 5.69722 9.15 5.89815 9.57 6.3C9.99 6.70185 10.2 7.21065 10.2 7.82639C10.2 8.44213 9.99 8.95417 9.57 9.3625C9.15 9.77083 8.62333 9.975 7.99 9.975ZM1.2 14C0.88 14 0.6 13.8833 0.36 13.65C0.12 13.4167 0 13.1444 0 12.8333V2.85833C0 2.56019 0.12 2.2912 0.36 2.05139C0.6 1.81157 0.88 1.69167 1.2 1.69167H4.14L5.6 0H10.4L11.86 1.69167H14.8C15.1067 1.69167 15.3833 1.81157 15.63 2.05139C15.8767 2.2912 16 2.56019 16 2.85833V12.8333C16 13.1444 15.8767 13.4167 15.63 13.65C15.3833 13.8833 15.1067 14 14.8 14H1.2ZM1.2 12.8333H14.8V2.85833H11.3L9.84 1.16667H6.16L4.7 2.85833H1.2V12.8333Z" fill="#3A4990"/>
</svg>
