<svg width="16" height="14" viewBox="0 0 16 14" fill="none" xmlns="http://www.w3.org/2000/svg">
<path id="videocam" d="M1.2 13.5C0.88 13.5 0.6 13.3781 0.36 13.1344C0.12 12.8906 0 12.6062 0 12.2812V1.71875C0 1.39375 0.12 1.10938 0.36 0.865625C0.6 0.621875 0.88 0.5 1.2 0.5H11.6C11.92 0.5 12.2 0.621875 12.44 0.865625C12.68 1.10938 12.8 1.39375 12.8 1.71875V6.08594L16 2.83594V11.1641L12.8 7.91406V12.2812C12.8 12.6062 12.68 12.8906 12.44 13.1344C12.2 13.3781 11.92 13.5 11.6 13.5H1.2ZM1.2 12.2812H11.6V1.71875H1.2V12.2812Z" fill="#3A4990"/>
</svg>
